<?xml version="1.0" encoding="UTF-8" standalone="no"?>
<!-- Created with Inkscape (http://www.inkscape.org/) -->

<svg
   version="1.1"
   id="svg2"
   xml:space="preserve"
   width="418"
   height="441"
   viewBox="0 0 417.99999 441.00001"
   sodipodi:docname="Indexer.svg"
   inkscape:version="1.1.2 (0a00cf5339, 2022-02-04)"
   xmlns:inkscape="http://www.inkscape.org/namespaces/inkscape"
   xmlns:sodipodi="http://sodipodi.sourceforge.net/DTD/sodipodi-0.dtd"
   xmlns="http://www.w3.org/2000/svg"
   xmlns:svg="http://www.w3.org/2000/svg"><defs
     id="defs6"><clipPath
       clipPathUnits="userSpaceOnUse"
       id="clipPath22"><path
         d="M 0,1230.448 H 1985.281 V 0 H 0 Z"
         id="path20" /></clipPath><linearGradient
       x1="0"
       y1="0"
       x2="1"
       y2="0"
       gradientUnits="userSpaceOnUse"
       gradientTransform="matrix(23.385691,0,0,-23.385691,1520.6469,1000.8499)"
       spreadMethod="pad"
       id="linearGradient58"><stop
         style="stop-opacity:1;stop-color:#e3cbfb"
         offset="0"
         id="stop52" /><stop
         style="stop-opacity:1;stop-color:#e3cbfb"
         offset="0.00234449"
         id="stop54" /><stop
         style="stop-opacity:1;stop-color:#4485ee"
         offset="1"
         id="stop56" /></linearGradient><clipPath
       clipPathUnits="userSpaceOnUse"
       id="clipPath68"><path
         d="M 0,1230.448 H 1985.281 V 0 H 0 Z"
         id="path66" /></clipPath><clipPath
       clipPathUnits="userSpaceOnUse"
       id="clipPath100"><path
         d="M 0,1230.448 H 1985.281 V 0 H 0 Z"
         id="path98" /></clipPath><clipPath
       clipPathUnits="userSpaceOnUse"
       id="clipPath116"><path
         d="M 0,1230.448 H 1985.281 V 0 H 0 Z"
         id="path114" /></clipPath><clipPath
       clipPathUnits="userSpaceOnUse"
       id="clipPath132"><path
         d="M 0,1230.448 H 1985.281 V 0 H 0 Z"
         id="path130" /></clipPath><clipPath
       clipPathUnits="userSpaceOnUse"
       id="clipPath148"><path
         d="M 0,1230.448 H 1985.281 V 0 H 0 Z"
         id="path146" /></clipPath><clipPath
       clipPathUnits="userSpaceOnUse"
       id="clipPath168"><path
         d="M 0,1230.448 H 1985.281 V 0 H 0 Z"
         id="path166" /></clipPath><clipPath
       clipPathUnits="userSpaceOnUse"
       id="clipPath184"><path
         d="M 0,1230.448 H 1985.281 V 0 H 0 Z"
         id="path182" /></clipPath><clipPath
       clipPathUnits="userSpaceOnUse"
       id="clipPath200"><path
         d="M 0,1230.448 H 1985.281 V 0 H 0 Z"
         id="path198" /></clipPath><clipPath
       clipPathUnits="userSpaceOnUse"
       id="clipPath216"><path
         d="M 0,1230.448 H 1985.281 V 0 H 0 Z"
         id="path214" /></clipPath><clipPath
       clipPathUnits="userSpaceOnUse"
       id="clipPath244"><path
         d="M 0,1230.448 H 1985.281 V 0 H 0 Z"
         id="path242" /></clipPath><linearGradient
       x1="0"
       y1="0"
       x2="1"
       y2="0"
       gradientUnits="userSpaceOnUse"
       gradientTransform="matrix(-49.668579,0,0,49.668579,1560.0885,486.13931)"
       spreadMethod="pad"
       id="linearGradient268"><stop
         style="stop-opacity:1;stop-color:#e3cbfb"
         offset="0"
         id="stop262" /><stop
         style="stop-opacity:1;stop-color:#e3cbfb"
         offset="0.00234449"
         id="stop264" /><stop
         style="stop-opacity:1;stop-color:#4485ee"
         offset="1"
         id="stop266" /></linearGradient><clipPath
       clipPathUnits="userSpaceOnUse"
       id="clipPath278"><path
         d="M 0,1230.448 H 1985.281 V 0 H 0 Z"
         id="path276" /></clipPath><clipPath
       clipPathUnits="userSpaceOnUse"
       id="clipPath316"><path
         d="M 0,1230.448 H 1985.281 V 0 H 0 Z"
         id="path314" /></clipPath><clipPath
       clipPathUnits="userSpaceOnUse"
       id="clipPath332"><path
         d="M 0,1230.448 H 1985.281 V 0 H 0 Z"
         id="path330" /></clipPath><linearGradient
       x1="0"
       y1="0"
       x2="1"
       y2="0"
       gradientUnits="userSpaceOnUse"
       gradientTransform="matrix(17.670286,0,0,-17.670286,1602.859,810.17987)"
       spreadMethod="pad"
       id="linearGradient360"><stop
         style="stop-opacity:1;stop-color:#e3cbfb"
         offset="0"
         id="stop354" /><stop
         style="stop-opacity:1;stop-color:#e3cbfb"
         offset="0.00234449"
         id="stop356" /><stop
         style="stop-opacity:1;stop-color:#4485ee"
         offset="1"
         id="stop358" /></linearGradient><clipPath
       clipPathUnits="userSpaceOnUse"
       id="clipPath370"><path
         d="M 0,1230.448 H 1985.281 V 0 H 0 Z"
         id="path368" /></clipPath><clipPath
       clipPathUnits="userSpaceOnUse"
       id="clipPath402"><path
         d="M 0,1230.448 H 1985.281 V 0 H 0 Z"
         id="path400" /></clipPath><linearGradient
       x1="0"
       y1="0"
       x2="1"
       y2="0"
       gradientUnits="userSpaceOnUse"
       gradientTransform="matrix(19.892187,0,0,-19.892187,1537.5496,596.48041)"
       spreadMethod="pad"
       id="linearGradient428"><stop
         style="stop-opacity:1;stop-color:#e3cbfb"
         offset="0"
         id="stop422" /><stop
         style="stop-opacity:1;stop-color:#e3cbfb"
         offset="0.00234449"
         id="stop424" /><stop
         style="stop-opacity:1;stop-color:#4485ee"
         offset="1"
         id="stop426" /></linearGradient><clipPath
       clipPathUnits="userSpaceOnUse"
       id="clipPath438"><path
         d="M 0,1230.448 H 1985.281 V 0 H 0 Z"
         id="path436" /></clipPath><clipPath
       clipPathUnits="userSpaceOnUse"
       id="clipPath470"><path
         d="M 0,1230.448 H 1985.281 V 0 H 0 Z"
         id="path468" /></clipPath><clipPath
       clipPathUnits="userSpaceOnUse"
       id="clipPath492"><path
         d="M 0,1230.448 H 1985.281 V 0 H 0 Z"
         id="path490" /></clipPath><clipPath
       clipPathUnits="userSpaceOnUse"
       id="clipPath504"><path
         d="m 846.738,807.452 h 65.2 c 0,18.005 -14.597,32.6 -32.6,32.6 v 0 c -18.005,0 -32.6,-14.595 -32.6,-32.6"
         id="path502" /></clipPath><clipPath
       clipPathUnits="userSpaceOnUse"
       id="clipPath514"><path
         d="M 0,1230.448 H 1985.281 V 0 H 0 Z"
         id="path512" /></clipPath><linearGradient
       x1="0"
       y1="0"
       x2="1"
       y2="0"
       gradientUnits="userSpaceOnUse"
       gradientTransform="matrix(53.20258,0,0,-53.20258,852.73633,794.0249)"
       spreadMethod="pad"
       id="linearGradient542"><stop
         style="stop-opacity:1;stop-color:#e3cbfb"
         offset="0"
         id="stop536" /><stop
         style="stop-opacity:1;stop-color:#e3cbfb"
         offset="0.00234449"
         id="stop538" /><stop
         style="stop-opacity:1;stop-color:#4485ee"
         offset="1"
         id="stop540" /></linearGradient><linearGradient
       x1="0"
       y1="0"
       x2="1"
       y2="0"
       gradientUnits="userSpaceOnUse"
       gradientTransform="matrix(53.20258,0,0,-53.20258,852.73633,794.02039)"
       spreadMethod="pad"
       id="linearGradient564"><stop
         style="stop-opacity:1;stop-color:#e3cbfb"
         offset="0"
         id="stop558" /><stop
         style="stop-opacity:1;stop-color:#e3cbfb"
         offset="0.00234449"
         id="stop560" /><stop
         style="stop-opacity:1;stop-color:#4485ee"
         offset="1"
         id="stop562" /></linearGradient><clipPath
       clipPathUnits="userSpaceOnUse"
       id="clipPath574"><path
         d="M 0,1230.448 H 1985.281 V 0 H 0 Z"
         id="path572" /></clipPath><clipPath
       clipPathUnits="userSpaceOnUse"
       id="clipPath606"><path
         d="M 0,1230.448 H 1985.281 V 0 H 0 Z"
         id="path604" /></clipPath><clipPath
       clipPathUnits="userSpaceOnUse"
       id="clipPath638"><path
         d="M 0,1230.448 H 1985.281 V 0 H 0 Z"
         id="path636" /></clipPath></defs><sodipodi:namedview
     id="namedview4"
     pagecolor="#ffffff"
     bordercolor="#666666"
     borderopacity="1.0"
     inkscape:pageshadow="2"
     inkscape:pageopacity="0.0"
     inkscape:pagecheckerboard="0"
     showgrid="false"
     inkscape:zoom="0.48671291"
     inkscape:cx="200.32343"
     inkscape:cy="810.53942"
     inkscape:window-width="1080"
     inkscape:window-height="1857"
     inkscape:window-x="0"
     inkscape:window-y="0"
     inkscape:window-maximized="1"
     inkscape:current-layer="g8"
     units="mm" /><g
     id="g8"
     inkscape:groupmode="layer"
     inkscape:label="1node_3elk_env"
     transform="matrix(1.3333333,0,0,-1.3333333,0,1640.6)"><g
       id="g3951"
       transform="matrix(2.0544602,0,0,2.0544602,-908.588,-1150.0052)"><g
         id="g250"
         transform="matrix(2.382988,0,0,2.382988,-3138.9849,-57.952591)"><g
           id="g252"><g
             id="g258"><g
               id="g260"><path
                 d="m 1510.42,462.898 h 49.669 v 46.482 h -49.669 z"
                 style="fill:url(#linearGradient268);stroke:none"
                 id="path270" /></g></g></g></g><path
         d="M 561.04482,1123.7378 H 477.9691 v 4.9137 h 83.07572 z"
         style="fill:#000000;fill-opacity:1;fill-rule:nonzero;stroke:none;stroke-width:2.38299"
         id="path280" /><g
         id="g282"
         transform="matrix(2.382988,0,0,2.382988,552.33548,1125.8584)"><path
           d="m 0,0 c 0,-2.614 -2.119,-4.733 -4.733,-4.733 -2.613,0 -4.732,2.119 -4.732,4.733 0,2.614 2.119,4.733 4.732,4.733 C -2.119,4.733 0,2.614 0,0"
           style="fill:#ffffff;fill-opacity:1;fill-rule:nonzero;stroke:none"
           id="path284" /></g><path
         d="M 561.04482,1071.9269 H 477.9691 v 4.9137 h 83.07572 z"
         style="fill:#000000;fill-opacity:1;fill-rule:nonzero;stroke:none;stroke-width:2.38299"
         id="path286" /><g
         id="g288"
         transform="matrix(2.382988,0,0,2.382988,552.33548,1074.0482)"><path
           d="m 0,0 c 0,-2.614 -2.119,-4.733 -4.733,-4.733 -2.613,0 -4.732,2.119 -4.732,4.733 0,2.614 2.119,4.733 4.732,4.733 C -2.119,4.733 0,2.614 0,0"
           style="fill:#ffffff;fill-opacity:1;fill-rule:nonzero;stroke:none"
           id="path290" /></g><path
         d="m 477.9691,1100.7348 h 83.07572 v -4.9137 H 477.9691 Z"
         style="fill:#000000;fill-opacity:1;fill-rule:nonzero;stroke:none;stroke-width:2.38299"
         id="path292" /><g
         id="g294"
         transform="matrix(2.382988,0,0,2.382988,486.67915,1098.6132)"><path
           d="M 0,0 C 0,2.614 2.119,4.733 4.733,4.733 7.346,4.733 9.465,2.614 9.465,0 9.465,-2.614 7.346,-4.733 4.733,-4.733 2.119,-4.733 0,-2.614 0,0"
           style="fill:#ffffff;fill-opacity:1;fill-rule:nonzero;stroke:none"
           id="path296" /></g></g><g
       id="g4011"
       transform="translate(1.6174076)"><g
         id="g3957"
         transform="matrix(0.67707614,0,0,0.70917001,-407.73618,144.28768)"><g
           id="g298"
           transform="matrix(2.382988,0,0,2.382988,672.10255,1087.5586)"><path
             d="M 0,0 -4.372,14.212 H -7.824 L -12.197,0 -16.531,14.221 h -3.971 l 6.329,-20.723 h 3.222 L -6.098,8.497 -1.265,-6.502 H 1.957 L 8.286,14.212 H 4.335 Z"
             style="fill:#000000;fill-opacity:1;fill-rule:nonzero;stroke:none"
             id="path300" /></g><g
           id="g302"
           transform="matrix(2.382988,0,0,2.382988,700.21347,1086.6626)"><path
             d="m 0,0 c -1.805,0 -3.269,-1.464 -3.269,-3.269 0,-1.805 1.464,-3.269 3.269,-3.269 1.805,0 3.269,1.464 3.269,3.269 C 3.269,-1.464 1.805,0 0,0"
             style="fill:#007aff;fill-opacity:1;fill-rule:nonzero;stroke:none"
             id="path304" /></g></g><g
         aria-label="dashboard"
         transform="matrix(0.67707614,0,0,-0.70917001,-283.09364,425.30206)"
         id="text308"
         style="font-size:63.8033px;font-family:Manrope;-inkscape-font-specification:Manrope-Regular;fill:#2f2f34;stroke-width:2.38299"><path
           d="m 567.7953,-674.64091 q -4.81715,0 -8.23062,-2.39263 -3.41348,-2.42452 -5.23187,-6.53983 -1.8184,-4.11532 -1.8184,-9.28338 0,-5.13617 1.78649,-9.25148 1.8184,-4.11531 5.19997,-6.50794 3.38158,-2.39262 8.10302,-2.39262 4.84905,0 8.16682,2.36072 3.31778,2.36072 5.00856,6.47603 1.72269,4.08342 1.72269,9.31529 0,5.13616 -1.69078,9.28338 -1.69079,4.11531 -4.97666,6.53983 -3.28587,2.39263 -8.03922,2.39263 z m 0.47853,-4.37053 q 3.66869,0 6.06131,-1.78649 2.39262,-1.78649 3.57299,-4.91285 1.18036,-3.15827 1.18036,-7.14597 0,-4.05151 -1.18036,-7.14597 -1.18037,-3.12636 -3.57299,-4.88096 -2.36072,-1.75459 -5.96561,-1.75459 -3.70059,0 -6.12511,1.8184 -2.42453,1.81839 -3.60489,4.94475 -1.14846,3.12636 -1.14846,7.01837 0,3.9239 1.18036,7.08216 1.21226,3.12636 3.60489,4.94476 2.39262,1.81839 5.99751,1.81839 z m 10.81466,3.41348 V -701.534 h -0.51043 v -20.00234 h 4.72144 v 45.93838 z"
           id="path3959" /><path
           d="m 602.05767,-674.64091 q -3.892,0 -6.53984,-1.40367 -2.61594,-1.40368 -3.9239,-3.7325 -1.30797,-2.32882 -1.30797,-5.07236 0,-2.80734 1.11656,-4.78525 1.14845,-2.0098 3.09446,-3.28587 1.9779,-1.27606 4.56193,-1.946 2.61594,-0.63803 5.7742,-1.11656 3.19016,-0.51042 6.22082,-0.86134 3.06256,-0.38282 5.35948,-0.73374 l -1.65889,1.02085 q 0.0957,-5.10426 -1.9779,-7.56069 -2.07361,-2.45642 -7.20977,-2.45642 -3.54109,0 -5.99751,1.59508 -2.42453,1.59508 -3.41348,5.04046 l -4.56193,-1.33987 q 1.18036,-4.62574 4.75334,-7.17787 3.57299,-2.55213 9.28338,-2.55213 4.72145,0 8.00732,1.78649 3.31777,1.75459 4.68954,5.10426 0.63803,1.49938 0.82944,3.34968 0.19141,1.85029 0.19141,3.76439 v 21.40601 h -4.17912 v -8.64535 l 1.21227,0.51043 q -1.75459,4.43433 -5.45519,6.76315 -3.70059,2.32882 -8.86865,2.32882 z m 0.54232,-4.05151 q 3.28587,0 5.7423,-1.18036 2.45643,-1.18036 3.95581,-3.22207 1.49937,-2.07361 1.946,-4.65764 0.38282,-1.65889 0.41472,-3.63679 0.0319,-2.0098 0.0319,-2.99875 l 1.78649,0.92514 q -2.39262,0.31902 -5.19997,0.63804 -2.77544,0.31901 -5.48708,0.73374 -2.67974,0.41472 -4.84905,0.98895 -1.46748,0.41472 -2.83925,1.18036 -1.37177,0.73374 -2.26502,1.9779 -0.86134,1.24416 -0.86134,3.09446 0,1.49938 0.73374,2.90305 0.76564,1.40367 2.42452,2.32882 1.69079,0.92515 4.46623,0.92515 z"
           id="path3961" /><path
           d="m 640.46725,-674.67281 q -6.06131,0 -9.98522,-2.61594 -3.892,-2.61593 -4.78524,-7.27357 l 4.78524,-0.79755 q 0.76564,2.93496 3.47728,4.68955 2.74354,1.72269 6.76315,1.72269 3.92391,0 6.18892,-1.62699 2.26502,-1.65888 2.26502,-4.49813 0,-1.59508 -0.73374,-2.58403 -0.70183,-1.02086 -2.90305,-1.8822 -2.20121,-0.86135 -6.57174,-2.04171 -4.68954,-1.27606 -7.33738,-2.55213 -2.64783,-1.27607 -3.76439,-2.93495 -1.11656,-1.69079 -1.11656,-4.11531 0,-2.93496 1.65889,-5.13617 1.65888,-2.23312 4.59383,-3.44538 2.93495,-1.24416 6.82696,-1.24416 3.892,0 6.95456,1.27606 3.09446,1.24417 4.97665,3.50919 1.8822,2.26501 2.23312,5.26377 l -4.78525,0.86134 q -0.47852,-3.03065 -3.03066,-4.78525 -2.52023,-1.78649 -6.41223,-1.85029 -3.66869,-0.0957 -5.96561,1.40367 -2.29691,1.46748 -2.29691,3.9239 0,1.37178 0.82944,2.36073 0.82944,0.95705 2.99875,1.81839 2.20122,0.86134 6.25273,1.8822 4.75334,1.21226 7.46498,2.55213 2.71164,1.33987 3.8601,3.15826 1.14846,1.8184 1.14846,4.49814 0,4.88095 -3.63679,7.68829 -3.60488,2.77545 -9.95331,2.77545 z"
           id="path3963" /><path
           d="m 685.99094,-675.59796 v -17.57781 q 0,-2.87115 -0.54233,-5.26377 -0.54233,-2.42453 -1.75459,-4.21102 -1.18036,-1.81839 -3.09446,-2.80735 -1.8822,-0.98895 -4.59384,-0.98895 -2.48833,0 -4.40243,0.86135 -1.8822,0.86134 -3.19016,2.48833 -1.27607,1.59508 -1.946,3.892 -0.66994,2.29692 -0.66994,5.23187 l -3.31777,-0.73374 q 0,-5.29567 1.8503,-8.90056 1.85029,-3.60489 5.10426,-5.45518 3.25397,-1.8503 7.46499,-1.8503 3.09446,0 5.39137,0.95705 2.32883,0.95705 3.92391,2.58404 1.62698,1.62698 2.61593,3.73249 0.98895,2.07361 1.43558,4.43433 0.44662,2.32882 0.44662,4.65764 v 18.94958 z m -24.91519,0 v -45.93838 h 4.24292 v 25.93604 h 0.47852 v 20.00234 z"
           id="path3965" /><path
           d="m 714.47912,-674.64091 q -4.75335,0 -8.03922,-2.39263 -3.28587,-2.42452 -4.97665,-6.53983 -1.69079,-4.14722 -1.69079,-9.28338 0,-5.23187 1.69079,-9.31529 1.72269,-4.11531 5.04046,-6.47603 3.31777,-2.36072 8.16682,-2.36072 4.72144,0 8.10302,2.39262 3.38157,2.39263 5.16807,6.50794 1.81839,4.11531 1.81839,9.25148 0,5.16806 -1.81839,9.28338 -1.8184,4.11531 -5.23188,6.53983 -3.41347,2.39263 -8.23062,2.39263 z m -15.5042,-0.95705 v -45.93838 h 4.72144 v 20.00234 h -0.51042 v 25.93604 z m 15.02567,-3.41348 q 3.60489,0 5.99751,-1.81839 2.39263,-1.8184 3.57299,-4.94476 1.21226,-3.15826 1.21226,-7.08216 0,-3.89201 -1.18036,-7.01837 -1.18036,-3.12636 -3.60489,-4.94475 -2.39262,-1.8184 -6.09321,-1.8184 -3.60489,0 -5.99751,1.75459 -2.36072,1.7546 -3.54108,4.88096 -1.18036,3.09446 -1.18036,7.14597 0,3.9877 1.18036,7.14597 1.18036,3.12636 3.57298,4.91285 2.39262,1.78649 6.06131,1.78649 z"
           id="path3967" /><path
           d="m 751.16601,-674.64091 q -5.13617,0 -8.77295,-2.32882 -3.63679,-2.32882 -5.58279,-6.44414 -1.946,-4.11531 -1.946,-9.44288 0,-5.42328 1.9779,-9.5067 1.9779,-4.08341 5.61469,-6.34842 3.66869,-2.29692 8.70915,-2.29692 5.16807,0 8.80485,2.32882 3.66869,2.29692 5.58279,6.41223 1.946,4.08341 1.946,9.41099 0,5.42328 -1.946,9.53859 -1.946,4.08341 -5.61469,6.38033 -3.66869,2.29692 -8.77295,2.29692 z m 0,-4.49813 q 5.7423,0 8.54964,-3.7963 2.80735,-3.8282 2.80735,-9.92141 0,-6.25273 -2.83925,-9.95332 -2.80735,-3.70059 -8.51774,-3.70059 -3.8601,0 -6.38033,1.75459 -2.48833,1.72269 -3.73249,4.81715 -1.21227,3.06256 -1.21227,7.08217 0,6.22082 2.87115,9.98521 2.87115,3.7325 8.45394,3.7325 z"
           id="path3969" /><path
           d="m 784.34374,-674.64091 q -3.892,0 -6.53984,-1.40367 -2.61594,-1.40368 -3.9239,-3.7325 -1.30797,-2.32882 -1.30797,-5.07236 0,-2.80734 1.11656,-4.78525 1.14846,-2.0098 3.09446,-3.28587 1.9779,-1.27606 4.56193,-1.946 2.61594,-0.63803 5.7742,-1.11656 3.19017,-0.51042 6.22082,-0.86134 3.06256,-0.38282 5.35948,-0.73374 l -1.65889,1.02085 q 0.0957,-5.10426 -1.9779,-7.56069 -2.0736,-2.45642 -7.20977,-2.45642 -3.54108,0 -5.99751,1.59508 -2.42453,1.59508 -3.41348,5.04046 l -4.56193,-1.33987 q 1.18036,-4.62574 4.75334,-7.17787 3.57299,-2.55213 9.28338,-2.55213 4.72145,0 8.00732,1.78649 3.31777,1.75459 4.68954,5.10426 0.63803,1.49938 0.82944,3.34968 0.19141,1.85029 0.19141,3.76439 v 21.40601 h -4.17911 v -8.64535 l 1.21226,0.51043 q -1.75459,4.43433 -5.45518,6.76315 -3.70059,2.32882 -8.86866,2.32882 z m 0.54233,-4.05151 q 3.28587,0 5.74229,-1.18036 2.45643,-1.18036 3.95581,-3.22207 1.49938,-2.07361 1.946,-4.65764 0.38282,-1.65889 0.41472,-3.63679 0.0319,-2.0098 0.0319,-2.99875 l 1.78649,0.92514 q -2.39262,0.31902 -5.19997,0.63804 -2.77544,0.31901 -5.48708,0.73374 -2.67974,0.41472 -4.84905,0.98895 -1.46748,0.41472 -2.83925,1.18036 -1.37177,0.73374 -2.26501,1.9779 -0.86135,1.24416 -0.86135,3.09446 0,1.49938 0.73374,2.90305 0.76564,1.40367 2.42453,2.32882 1.69078,0.92515 4.46623,0.92515 z"
           id="path3971" /><path
           d="m 809.89696,-675.59796 v -34.45378 h 4.21101 v 8.29443 l -0.82944,-1.08466 q 0.57423,-1.53128 1.49938,-2.80735 0.92515,-1.30796 2.0098,-2.13741 1.33987,-1.18036 3.12636,-1.78649 1.7865,-0.63803 3.60489,-0.73374 1.81839,-0.1276 3.31777,0.25522 v 4.40242 q -1.8822,-0.47852 -4.11531,-0.22331 -2.23312,0.25522 -4.11531,1.7865 -1.72269,1.33986 -2.58404,3.22206 -0.86134,1.8503 -1.14846,3.95581 -0.28711,2.0736 -0.28711,4.11531 v 17.19499 z"
           id="path3973" /><path
           d="m 845.62685,-674.64091 q -4.81715,0 -8.23063,-2.39263 -3.41348,-2.42452 -5.23187,-6.53983 -1.81839,-4.11532 -1.81839,-9.28338 0,-5.13617 1.78649,-9.25148 1.81839,-4.11531 5.19997,-6.50794 3.38157,-2.39262 8.10302,-2.39262 4.84905,0 8.16682,2.36072 3.31777,2.36072 5.00856,6.47603 1.72269,4.08342 1.72269,9.31529 0,5.13616 -1.69079,9.28338 -1.69079,4.11531 -4.97666,6.53983 -3.28587,2.39263 -8.03921,2.39263 z m 0.47852,-4.37053 q 3.66869,0 6.06131,-1.78649 2.39263,-1.78649 3.57299,-4.91285 1.18036,-3.15827 1.18036,-7.14597 0,-4.05151 -1.18036,-7.14597 -1.18036,-3.12636 -3.57299,-4.88096 -2.36072,-1.75459 -5.96561,-1.75459 -3.70059,0 -6.12511,1.8184 -2.42453,1.81839 -3.60489,4.94475 -1.14846,3.12636 -1.14846,7.01837 0,3.9239 1.18036,7.08216 1.21227,3.12636 3.60489,4.94476 2.39262,1.81839 5.99751,1.81839 z m 10.81466,3.41348 V -701.534 h -0.51043 v -20.00234 h 4.72145 v 45.93838 z"
           id="path3975" /></g></g></g></svg>
