<?xml version="1.0" encoding="UTF-8" standalone="no"?>
<!-- Created with Inkscape (http://www.inkscape.org/) -->

<svg
   version="1.1"
   id="svg2"
   xml:space="preserve"
   width="418"
   height="441"
   viewBox="0 0 417.99999 441.00001"
   sodipodi:docname="Dashboard.svg"
   inkscape:version="1.1.2 (0a00cf5339, 2022-02-04)"
   inkscape:export-filename="./Indexer.png"
   inkscape:export-xdpi="96"
   inkscape:export-ydpi="96"
   xmlns:inkscape="http://www.inkscape.org/namespaces/inkscape"
   xmlns:sodipodi="http://sodipodi.sourceforge.net/DTD/sodipodi-0.dtd"
   xmlns="http://www.w3.org/2000/svg"
   xmlns:svg="http://www.w3.org/2000/svg"><defs
     id="defs6"><clipPath
       clipPathUnits="userSpaceOnUse"
       id="clipPath22"><path
         d="M 0,1230.448 H 1985.281 V 0 H 0 Z"
         id="path20" /></clipPath><linearGradient
       x1="0"
       y1="0"
       x2="1"
       y2="0"
       gradientUnits="userSpaceOnUse"
       gradientTransform="matrix(23.385691,0,0,-23.385691,1520.6469,1000.8499)"
       spreadMethod="pad"
       id="linearGradient58"><stop
         style="stop-opacity:1;stop-color:#e3cbfb"
         offset="0"
         id="stop52" /><stop
         style="stop-opacity:1;stop-color:#e3cbfb"
         offset="0.00234449"
         id="stop54" /><stop
         style="stop-opacity:1;stop-color:#4485ee"
         offset="1"
         id="stop56" /></linearGradient><clipPath
       clipPathUnits="userSpaceOnUse"
       id="clipPath68"><path
         d="M 0,1230.448 H 1985.281 V 0 H 0 Z"
         id="path66" /></clipPath><clipPath
       clipPathUnits="userSpaceOnUse"
       id="clipPath100"><path
         d="M 0,1230.448 H 1985.281 V 0 H 0 Z"
         id="path98" /></clipPath><clipPath
       clipPathUnits="userSpaceOnUse"
       id="clipPath116"><path
         d="M 0,1230.448 H 1985.281 V 0 H 0 Z"
         id="path114" /></clipPath><clipPath
       clipPathUnits="userSpaceOnUse"
       id="clipPath132"><path
         d="M 0,1230.448 H 1985.281 V 0 H 0 Z"
         id="path130" /></clipPath><clipPath
       clipPathUnits="userSpaceOnUse"
       id="clipPath148"><path
         d="M 0,1230.448 H 1985.281 V 0 H 0 Z"
         id="path146" /></clipPath><clipPath
       clipPathUnits="userSpaceOnUse"
       id="clipPath168"><path
         d="M 0,1230.448 H 1985.281 V 0 H 0 Z"
         id="path166" /></clipPath><clipPath
       clipPathUnits="userSpaceOnUse"
       id="clipPath184"><path
         d="M 0,1230.448 H 1985.281 V 0 H 0 Z"
         id="path182" /></clipPath><clipPath
       clipPathUnits="userSpaceOnUse"
       id="clipPath200"><path
         d="M 0,1230.448 H 1985.281 V 0 H 0 Z"
         id="path198" /></clipPath><clipPath
       clipPathUnits="userSpaceOnUse"
       id="clipPath216"><path
         d="M 0,1230.448 H 1985.281 V 0 H 0 Z"
         id="path214" /></clipPath><clipPath
       clipPathUnits="userSpaceOnUse"
       id="clipPath244"><path
         d="M 0,1230.448 H 1985.281 V 0 H 0 Z"
         id="path242" /></clipPath><linearGradient
       x1="0"
       y1="0"
       x2="1"
       y2="0"
       gradientUnits="userSpaceOnUse"
       gradientTransform="matrix(-49.668579,0,0,49.668579,1560.0885,486.13931)"
       spreadMethod="pad"
       id="linearGradient268"><stop
         style="stop-opacity:1;stop-color:#e3cbfb"
         offset="0"
         id="stop262" /><stop
         style="stop-opacity:1;stop-color:#e3cbfb"
         offset="0.00234449"
         id="stop264" /><stop
         style="stop-opacity:1;stop-color:#4485ee"
         offset="1"
         id="stop266" /></linearGradient><clipPath
       clipPathUnits="userSpaceOnUse"
       id="clipPath278"><path
         d="M 0,1230.448 H 1985.281 V 0 H 0 Z"
         id="path276" /></clipPath><clipPath
       clipPathUnits="userSpaceOnUse"
       id="clipPath316"><path
         d="M 0,1230.448 H 1985.281 V 0 H 0 Z"
         id="path314" /></clipPath><clipPath
       clipPathUnits="userSpaceOnUse"
       id="clipPath332"><path
         d="M 0,1230.448 H 1985.281 V 0 H 0 Z"
         id="path330" /></clipPath><linearGradient
       x1="0"
       y1="0"
       x2="1"
       y2="0"
       gradientUnits="userSpaceOnUse"
       gradientTransform="matrix(17.670286,0,0,-17.670286,1602.859,810.17987)"
       spreadMethod="pad"
       id="linearGradient360"><stop
         style="stop-opacity:1;stop-color:#e3cbfb"
         offset="0"
         id="stop354" /><stop
         style="stop-opacity:1;stop-color:#e3cbfb"
         offset="0.00234449"
         id="stop356" /><stop
         style="stop-opacity:1;stop-color:#4485ee"
         offset="1"
         id="stop358" /></linearGradient><clipPath
       clipPathUnits="userSpaceOnUse"
       id="clipPath370"><path
         d="M 0,1230.448 H 1985.281 V 0 H 0 Z"
         id="path368" /></clipPath><clipPath
       clipPathUnits="userSpaceOnUse"
       id="clipPath402"><path
         d="M 0,1230.448 H 1985.281 V 0 H 0 Z"
         id="path400" /></clipPath><linearGradient
       x1="0"
       y1="0"
       x2="1"
       y2="0"
       gradientUnits="userSpaceOnUse"
       gradientTransform="matrix(19.892187,0,0,-19.892187,1537.5496,596.48041)"
       spreadMethod="pad"
       id="linearGradient428"><stop
         style="stop-opacity:1;stop-color:#e3cbfb"
         offset="0"
         id="stop422" /><stop
         style="stop-opacity:1;stop-color:#e3cbfb"
         offset="0.00234449"
         id="stop424" /><stop
         style="stop-opacity:1;stop-color:#4485ee"
         offset="1"
         id="stop426" /></linearGradient><clipPath
       clipPathUnits="userSpaceOnUse"
       id="clipPath438"><path
         d="M 0,1230.448 H 1985.281 V 0 H 0 Z"
         id="path436" /></clipPath><clipPath
       clipPathUnits="userSpaceOnUse"
       id="clipPath470"><path
         d="M 0,1230.448 H 1985.281 V 0 H 0 Z"
         id="path468" /></clipPath><clipPath
       clipPathUnits="userSpaceOnUse"
       id="clipPath492"><path
         d="M 0,1230.448 H 1985.281 V 0 H 0 Z"
         id="path490" /></clipPath><clipPath
       clipPathUnits="userSpaceOnUse"
       id="clipPath504"><path
         d="m 846.738,807.452 h 65.2 c 0,18.005 -14.597,32.6 -32.6,32.6 v 0 c -18.005,0 -32.6,-14.595 -32.6,-32.6"
         id="path502" /></clipPath><clipPath
       clipPathUnits="userSpaceOnUse"
       id="clipPath514"><path
         d="M 0,1230.448 H 1985.281 V 0 H 0 Z"
         id="path512" /></clipPath><linearGradient
       x1="0"
       y1="0"
       x2="1"
       y2="0"
       gradientUnits="userSpaceOnUse"
       gradientTransform="matrix(53.20258,0,0,-53.20258,852.73633,794.0249)"
       spreadMethod="pad"
       id="linearGradient542"><stop
         style="stop-opacity:1;stop-color:#e3cbfb"
         offset="0"
         id="stop536" /><stop
         style="stop-opacity:1;stop-color:#e3cbfb"
         offset="0.00234449"
         id="stop538" /><stop
         style="stop-opacity:1;stop-color:#4485ee"
         offset="1"
         id="stop540" /></linearGradient><linearGradient
       x1="0"
       y1="0"
       x2="1"
       y2="0"
       gradientUnits="userSpaceOnUse"
       gradientTransform="matrix(53.20258,0,0,-53.20258,852.73633,794.02039)"
       spreadMethod="pad"
       id="linearGradient564"><stop
         style="stop-opacity:1;stop-color:#e3cbfb"
         offset="0"
         id="stop558" /><stop
         style="stop-opacity:1;stop-color:#e3cbfb"
         offset="0.00234449"
         id="stop560" /><stop
         style="stop-opacity:1;stop-color:#4485ee"
         offset="1"
         id="stop562" /></linearGradient><clipPath
       clipPathUnits="userSpaceOnUse"
       id="clipPath574"><path
         d="M 0,1230.448 H 1985.281 V 0 H 0 Z"
         id="path572" /></clipPath><clipPath
       clipPathUnits="userSpaceOnUse"
       id="clipPath606"><path
         d="M 0,1230.448 H 1985.281 V 0 H 0 Z"
         id="path604" /></clipPath><clipPath
       clipPathUnits="userSpaceOnUse"
       id="clipPath638"><path
         d="M 0,1230.448 H 1985.281 V 0 H 0 Z"
         id="path636" /></clipPath><linearGradient
       x1="0"
       y1="0"
       x2="1"
       y2="0"
       gradientUnits="userSpaceOnUse"
       gradientTransform="matrix(23.385691,0,0,-23.385691,1520.6469,1000.8499)"
       spreadMethod="pad"
       id="linearGradient58-3"><stop
         style="stop-opacity:1;stop-color:#e3cbfb"
         offset="0"
         id="stop52-6" /><stop
         style="stop-opacity:1;stop-color:#e3cbfb"
         offset="0.00234449"
         id="stop54-7" /><stop
         style="stop-opacity:1;stop-color:#4485ee"
         offset="1"
         id="stop56-5" /></linearGradient></defs><sodipodi:namedview
     id="namedview4"
     pagecolor="#ffffff"
     bordercolor="#666666"
     borderopacity="1.0"
     inkscape:pageshadow="2"
     inkscape:pageopacity="0.0"
     inkscape:pagecheckerboard="0"
     showgrid="false"
     inkscape:zoom="0.32"
     inkscape:cx="60.9375"
     inkscape:cy="-426.5625"
     inkscape:window-width="1080"
     inkscape:window-height="1857"
     inkscape:window-x="0"
     inkscape:window-y="0"
     inkscape:window-maximized="1"
     inkscape:current-layer="g8"
     units="mm"
     showguides="true"
     inkscape:guide-bbox="true" /><g
     id="g8"
     inkscape:groupmode="layer"
     inkscape:label="1node_3elk_env"
     transform="matrix(1.3333333,0,0,-1.3333333,0,1640.6)"><g
       id="g4011"
       transform="translate(1.6174076)" /><g
       id="g1582"
       transform="matrix(3.8631059,0,0,3.8631059,-5695.2047,-2732.6253)"><g
         id="g36"
         transform="translate(1487.1661,965.2786)"><path
           d="m 0,0 -1.536,1.536 23.702,23.702 1.536,-1.536 z"
           style="fill:#000000;fill-opacity:1;fill-rule:nonzero;stroke:none"
           id="path38" /></g><g
         id="g40"><g
           id="g42"><g
             id="g48"><g
               id="g50"><path
                 d="m 1520.647,1024.208 v -46.717 c 0.01,0 0.017,0 0.026,0 v 0 c 12.901,0 23.36,10.458 23.36,23.358 v 0 c 0,12.902 -10.459,23.36 -23.36,23.36 v 0 c -0.01,0 -0.018,-10e-4 -0.026,-10e-4"
                 style="fill:url(#linearGradient58-3);stroke:none"
                 id="path60" /></g></g></g></g><g
         id="g70"
         transform="translate(1520.661,1024.2087)"><path
           d="m 0,0 c 0.009,0 0.018,0 0.027,0 v -46.717 c -0.009,0 -0.018,-0.001 -0.027,-0.001 -12.901,0 -23.359,10.458 -23.359,23.359 C -23.359,-10.458 -12.901,0 0,0"
           style="fill:#3585f9;fill-opacity:1;fill-rule:nonzero;stroke:none"
           id="path72" /></g><g
         id="g74"
         transform="translate(1530.4875,1007.9339)"><path
           d="M 0,0 -0.019,0.019 V 0 Z"
           style="fill:#3585f9;fill-opacity:1;fill-rule:nonzero;stroke:none"
           id="path76" /></g><g
         id="g78"
         transform="translate(1503.0944,1000.8499)"><path
           d="M 0,0 C 0,9.711 7.872,17.583 17.583,17.583"
           style="fill:none;stroke:#ffffff;stroke-width:1.368;stroke-linecap:butt;stroke-linejoin:miter;stroke-miterlimit:10;stroke-dasharray:none;stroke-opacity:1"
           id="path80" /></g></g><g
       id="g4949"
       transform="translate(13.612215)"><g
         id="g3957"
         transform="matrix(0.67707614,0,0,0.70917001,-406.11877,144.2877)"><g
           id="g298"
           transform="matrix(2.382988,0,0,2.382988,672.10255,1087.5586)"><path
             d="M 0,0 -4.372,14.212 H -7.824 L -12.197,0 -16.531,14.221 h -3.971 l 6.329,-20.723 h 3.222 L -6.098,8.497 -1.265,-6.502 H 1.957 L 8.286,14.212 H 4.335 Z"
             style="fill:#000000;fill-opacity:1;fill-rule:nonzero;stroke:none"
             id="path300" /></g><g
           id="g302"
           transform="matrix(2.382988,0,0,2.382988,700.21347,1086.6626)"><path
             d="m 0,0 c -1.805,0 -3.269,-1.464 -3.269,-3.269 0,-1.805 1.464,-3.269 3.269,-3.269 1.805,0 3.269,1.464 3.269,3.269 C 3.269,-1.464 1.805,0 0,0"
             style="fill:#007aff;fill-opacity:1;fill-rule:nonzero;stroke:none"
             id="path304" /></g></g><g
         aria-label="Indexer"
         transform="matrix(0.69287504,0,0,-0.69287504,-48.198334,531.65202)"
         id="text92"
         style="font-size:67.8975px;font-family:Manrope;-inkscape-font-specification:Manrope-Regular;word-spacing:0px;fill:#2f2f34;stroke-width:2.38299"><path
           d="m 233.97288,-537.99579 v -48.8862 h 4.99046 v 48.8862 z"
           id="path4814" /><path
           d="m 275.59409,-537.99579 v -18.70576 q 0,-3.05539 -0.57713,-5.60154 -0.57713,-2.58011 -1.86718,-4.48124 -1.25611,-1.93508 -3.29303,-2.98749 -2.00298,-1.05241 -4.88862,-1.05241 -2.648,0 -4.68493,0.91662 -2.00298,0.91661 -3.39487,2.648 -1.35795,1.69744 -2.07088,4.14175 -0.71292,2.44431 -0.71292,5.56759 l -3.53067,-0.78082 q 0,-5.63549 1.96903,-9.4717 1.96902,-3.83621 5.4318,-5.80524 3.46277,-1.96902 7.944,-1.96902 3.29303,0 5.73734,1.01846 2.47826,1.01846 4.1757,2.74985 1.73138,1.73138 2.78379,3.972 1.05242,2.20667 1.5277,4.71888 0.47528,2.47826 0.47528,4.95651 v 20.16556 z m -26.51398,0 v -36.66465 h 4.51519 v 9.03037 h 0.50923 v 27.63428 z"
           id="path4816" /><path
           d="m 303.43197,-536.97733 q -5.12626,0 -8.75878,-2.54615 -3.63251,-2.58011 -5.56759,-6.9595 -1.93508,-4.37938 -1.93508,-9.87908 0,-5.46575 1.90113,-9.84514 1.93508,-4.37939 5.53365,-6.92554 3.59856,-2.54616 8.62298,-2.54616 5.16021,0 8.69088,2.51221 3.53067,2.5122 5.32995,6.89159 1.83323,4.34544 1.83323,9.91304 0,5.46575 -1.79928,9.87908 -1.79928,4.37939 -5.296,6.9595 -3.49672,2.54615 -8.55509,2.54615 z m 0.50923,-4.65097 q 3.90411,0 6.45027,-1.90113 2.54615,-1.90113 3.80225,-5.22811 1.25611,-3.36093 1.25611,-7.60452 0,-4.31149 -1.25611,-7.60452 -1.2561,-3.32698 -3.80225,-5.19416 -2.51221,-1.86718 -6.34842,-1.86718 -3.93806,0 -6.51816,1.93508 -2.58011,1.93508 -3.83621,5.26205 -1.22215,3.32698 -1.22215,7.46873 0,4.17569 1.2561,7.53662 1.29005,3.32698 3.83621,5.26206 2.54615,1.93508 6.38236,1.93508 z m 11.50863,3.63251 v -27.60033 h -0.54318 v -21.28587 h 5.02441 v 48.8862 z"
           id="path4818" /><path
           d="m 344.91749,-536.97733 q -5.3639,0 -9.30196,-2.37641 -3.9041,-2.37641 -6.07682,-6.6879 -2.17272,-4.31149 -2.17272,-10.11673 0,-6.00893 2.13877,-10.38832 2.13877,-4.37939 6.00893,-6.7558 3.9041,-2.37641 9.20011,-2.37641 5.4318,0 9.26801,2.51221 3.8362,2.47826 5.80523,7.12923 1.96903,4.65098 1.79928,11.10125 h -5.09231 v -1.76534 q -0.13579,-7.12924 -3.08933,-10.76175 -2.9196,-3.63252 -8.55509,-3.63252 -5.90708,0 -9.06431,3.83621 -3.12329,3.83621 -3.12329,10.9315 0,6.92554 3.12329,10.76175 3.15723,3.80226 8.92852,3.80226 3.93805,0 6.85764,-1.79928 2.95355,-1.83324 4.65098,-5.26206 l 4.65098,1.79928 q -2.17272,4.78678 -6.41631,7.43478 -4.20965,2.61405 -9.5396,2.61405 z m -14.02083,-17.95888 v -4.1757 h 28.00771 v 4.1757 z"
           id="path4820" /><path
           d="m 363.65728,-537.99579 14.32637,-18.53602 -14.02083,-18.12863 h 5.97498 l 10.96544,14.29243 10.8636,-14.29243 h 5.97498 l -14.02083,18.12863 14.36032,18.53602 h -6.00893 l -11.16914,-14.69981 -11.23703,14.69981 z"
           id="path4822" /><path
           d="m 417.66959,-536.97733 q -5.3639,0 -9.30195,-2.37641 -3.90411,-2.37641 -6.07683,-6.6879 -2.17272,-4.31149 -2.17272,-10.11673 0,-6.00893 2.13877,-10.38832 2.13877,-4.37939 6.00893,-6.7558 3.90411,-2.37641 9.20011,-2.37641 5.4318,0 9.26801,2.51221 3.83621,2.47826 5.80524,7.12923 1.96902,4.65098 1.79928,11.10125 h -5.09231 v -1.76534 q -0.1358,-7.12924 -3.08934,-10.76175 -2.91959,-3.63252 -8.55508,-3.63252 -5.90709,0 -9.06432,3.83621 -3.12328,3.83621 -3.12328,10.9315 0,6.92554 3.12328,10.76175 3.15723,3.80226 8.92852,3.80226 3.93806,0 6.85765,-1.79928 2.95354,-1.83324 4.65098,-5.26206 l 4.65098,1.79928 q -2.17272,4.78678 -6.41632,7.43478 -4.20964,2.61405 -9.5396,2.61405 z m -14.02083,-17.95888 v -4.1757 h 28.00772 v 4.1757 z"
           id="path4824" /><path
           d="m 441.80696,-537.99579 v -36.66465 h 4.48124 v 8.82668 l -0.88267,-1.15426 q 0.61108,-1.62954 1.59559,-2.98749 0.98452,-1.3919 2.13877,-2.27457 1.42585,-1.2561 3.32698,-1.90113 1.90113,-0.67897 3.83621,-0.78082 1.93508,-0.13579 3.53067,0.27159 v 4.68493 q -2.00298,-0.50923 -4.37939,-0.23764 -2.37641,0.27159 -4.37939,1.90113 -1.83323,1.42585 -2.74985,3.42882 -0.91661,1.96903 -1.22215,4.20965 -0.30554,2.20667 -0.30554,4.37939 v 18.29837 z"
           id="path4826" /></g></g></g></svg>
